HIERARCHY
ROOT PELVIS
{
  OFFSET 0.0000 0.0000 0.0000
  CHANNELS 6 Xposition Yposition Zposition Zrotation Xrotation Yrotation
  JOINT SPINE_1
  {
    OFFSET 0.0000 12.0000 0.0000
    CHANNELS 3 Zrotation Xrotation Yrotation
    JOINT SPINE_2
    {
      OFFSET 0.0000 13.0000 0.0000
      CHANNELS 3 Zrotation Xrotation Yrotation
      JOINT CHEST
      {
        OFFSET 0.0000 11.0000 0.0000
        CHANNELS 3 Zrotation Xrotation Yrotation
        JOINT NECK
        {
          OFFSET 0.0000 20.0000 0.0000
          CHANNELS 3 Zrotation Xrotation Yrotation
          JOINT HEAD
          {
            OFFSET 0.0000 12.0000 0.0000
            CHANNELS 3 Zrotation Xrotation Yrotation
            End Site
            {
              OFFSET 0.0000 6.0000 0.0000
            }
          }
        }
        JOINT L_SHOULDER
        {
          OFFSET -19.0000 15.0000 0.0000
          CHANNELS 3 Zrotation Xrotation Yrotation
          JOINT L_UPPER_ARM
          {
            OFFSET -7.0000 0.0000 0.0000
            CHANNELS 3 Zrotation Xrotation Yrotation
            JOINT L_FOREARM
            {
              OFFSET -28.0000 0.0000 0.0000
              CHANNELS 3 Zrotation Xrotation Yrotation
              JOINT L_HAND
              {
                OFFSET -26.0000 0.0000 0.0000
                CHANNELS 3 Zrotation Xrotation Yrotation
                End Site
                {
                  OFFSET -13.0000 0.0000 0.0000
                }
              }
            }
          }
        }
        JOINT R_SHOULDER
        {
          OFFSET 19.0000 15.0000 0.0000
          CHANNELS 3 Zrotation Xrotation Yrotation
          JOINT R_UPPER_ARM
          {
            OFFSET 7.0000 0.0000 0.0000
            CHANNELS 3 Zrotation Xrotation Yrotation
            JOINT R_FOREARM
            {
              OFFSET 28.0000 0.0000 0.0000
              CHANNELS 3 Zrotation Xrotation Yrotation
              JOINT R_HAND
              {
                OFFSET 26.0000 0.0000 0.0000
                CHANNELS 3 Zrotation Xrotation Yrotation
                End Site
                {
                  OFFSET 13.0000 0.0000 0.0000
                }
              }
            }
          }
        }
      }
    }
  }
  JOINT L_THIGH
  {
    OFFSET -9.0000 -7.0000 0.0000
    CHANNELS 3 Zrotation Xrotation Yrotation
    JOINT L_SHIN
    {
      OFFSET 0.0000 -43.0000 0.0000
      CHANNELS 3 Zrotation Xrotation Yrotation
      JOINT L_FOOT
      {
        OFFSET 0.0000 -40.0000 0.0000
        CHANNELS 3 Zrotation Xrotation Yrotation
        End Site
        {
          OFFSET 0.0000 -20.0000 0.0000
        }
      }
    }
  }
  JOINT R_THIGH
  {
    OFFSET 9.0000 -7.0000 0.0000
    CHANNELS 3 Zrotation Xrotation Yrotation
    JOINT R_SHIN
    {
      OFFSET 0.0000 -43.0000 0.0000
      CHANNELS 3 Zrotation Xrotation Yrotation
      JOINT R_FOOT
      {
        OFFSET 0.0000 -40.0000 0.0000
        CHANNELS 3 Zrotation Xrotation Yrotation
        End Site
        {
          OFFSET 0.0000 -20.0000 0.0000
        }
      }
    }
  }
}

MOTION
Frames: 24
Frame Time: 0.010000
0.4945 86.7187 38.6488 6.7541 1.7292 5.8030 -3.7191 -3.1443 -2.1467 -3.7191 -3.1443 -2.1467 -3.8300 -3.2417 -2.2086 -0.0000 0.0000 -0.0000 -0.0000 0.0000 -0.0000 -0.0000 0.0000 -0.0000 -0.0000 0.0000 -0.0000 -0.0000 0.0000 -0.0000 -0.0000 0.0000 -0.0000 -0.0000 0.0000 -0.0000 -0.0000 0.0000 -0.0000 -0.0000 0.0000 -0.0000 -0.0000 0.0000 -0.0000 -0.3232 31.7881 -0.7603 -9.3705 -1.8980 -12.7013 -0.0000 0.0000 0.0000 -0.6587 -21.0146 0.2967 13.3263 5.3140 12.8100 -0.0000 -0.0000 -0.0000
0.4613 87.0187 39.3803 5.3027 1.9768 4.4742 -2.9225 -3.2562 -1.6917 -2.9225 -3.2562 -1.6917 -3.0097 -3.3561 -1.7405 -0.0000 0.0000 -0.0000 -0.0000 0.0000 -0.0000 -0.0000 0.0000 -0.0000 -0.0000 0.0000 -0.0000 -0.0000 0.0000 -0.0000 -0.0000 0.0000 -0.0000 -0.0000 0.0000 -0.0000 -0.0000 0.0000 -0.0000 -0.0000 0.0000 -0.0000 -0.0000 0.0000 -0.0000 -0.1463 24.8067 -0.3748 -9.4984 5.1762 -11.6340 0.0000 -0.0000 0.0000 -0.4380 -20.3692 0.2944 13.6381 -11.7505 12.6963 0.0000 -0.0000 -0.0000
0.4286 87.1181 40.0569 3.6556 2.1812 2.9726 -2.0199 -3.3534 -1.1768 -2.0199 -3.3534 -1.1768 -2.0801 -3.4556 -1.2107 0.0000 -0.0000 -0.0000 0.0000 -0.0000 -0.0000 0.0000 -0.0000 -0.0000 0.0000 -0.0000 -0.0000 0.0000 -0.0000 -0.0000 0.0000 -0.0000 -0.0000 0.0000 -0.0000 -0.0000 0.0000 -0.0000 -0.0000 0.0000 -0.0000 -0.0000 0.0000 -0.0000 -0.0000 -0.0208 17.0479 -0.0919 -9.4893 6.0857 -10.5335 -0.0000 -0.0000 -0.0000 -0.2869 -16.3763 0.3303 13.8100 -28.8674 12.5583 -0.0000 0.0000 -0.0000
0.3985 86.9576 40.6604 1.8712 2.3193 1.3571 -1.0417 -3.4100 -0.6204 -1.0417 -3.4100 -0.6204 -1.0728 -3.5135 -0.6383 0.0000 -0.0000 -0.0000 0.0000 -0.0000 -0.0000 0.0000 -0.0000 -0.0000 0.0000 -0.0000 -0.0000 0.0000 -0.0000 -0.0000 0.0000 -0.0000 -0.0000 0.0000 -0.0000 -0.0000 0.0000 -0.0000 -0.0000 0.0000 -0.0000 -0.0000 0.0000 -0.0000 -0.0000 0.0600 8.7967 0.0956 -9.3040 6.9952 -3.8043 0.0000 -0.0000 -0.0000 -0.1851 -8.4287 0.3848 13.8151 -42.1300 12.5755 0.0000 -0.0000 -0.0000
0.3711 86.5529 41.2002 0.0213 2.3708 -0.2648 -0.0295 -3.4376 -0.0702 -0.0295 -3.4376 -0.0702 -0.0304 -3.5417 -0.0723 -0.0000 0.0000 -0.0000 -0.0000 0.0000 -0.0000 -0.0000 0.0000 -0.0000 -0.0000 0.0000 -0.0000 -0.0000 0.0000 -0.0000 -0.0000 0.0000 -0.0000 -0.0000 0.0000 -0.0000 -0.0000 0.0000 -0.0000 -0.0000 0.0000 -0.0000 -0.0000 0.0000 -0.0000 0.1085 0.3588 0.1674 -8.8906 7.8599 8.7638 0.0000 -0.0000 -0.0000 -0.1049 -0.1070 0.4135 13.5237 -50.9899 12.9131 0.0000 -0.0000 -0.0000
0.3462 85.9576 41.6858 -1.8299 2.3517 -1.8878 0.9827 -3.4205 0.4760 0.9827 -3.4205 0.4760 1.0121 -3.5243 0.4896 -0.0000 0.0000 -0.0000 -0.0000 0.0000 -0.0000 -0.0000 0.0000 -0.0000 -0.0000 0.0000 -0.0000 -0.0000 0.0000 -0.0000 -0.0000 0.0000 -0.0000 -0.0000 0.0000 -0.0000 -0.0000 0.0000 -0.0000 -0.0000 0.0000 -0.0000 -0.0000 0.0000 -0.0000 0.1563 -7.9446 0.2206 -8.1896 8.6211 11.3029 0.0000 -0.0000 -0.0000 -0.0177 8.2396 0.4922 12.8429 -54.9105 13.6330 -0.0000 0.0000 -0.0000
0.3225 85.2450 42.1515 -3.6126 2.2284 -3.4384 1.9563 -3.3582 0.9943 1.9563 -3.3582 0.9943 2.0147 -3.4605 1.0227 -0.0000 0.0000 0.0000 -0.0000 0.0000 0.0000 -0.0000 0.0000 0.0000 -0.0000 0.0000 0.0000 -0.0000 0.0000 0.0000 -0.0000 0.0000 0.0000 -0.0000 0.0000 0.0000 -0.0000 0.0000 0.0000 -0.0000 0.0000 0.0000 -0.0000 0.0000 0.0000 0.2346 -15.8385 0.2499 -7.1714 9.2065 12.9425 0.0000 -0.0000 -0.0000 0.0975 16.4111 0.6371 11.9266 -53.3717 14.4958 0.0000 -0.0000 -0.0000
0.2998 84.5053 42.6250 -5.2579 2.0333 -4.8646 2.8544 -3.2637 1.4670 2.8544 -3.2637 1.4670 2.9397 -3.3637 1.5090 0.0000 -0.0000 -0.0000 0.0000 -0.0000 -0.0000 0.0000 -0.0000 -0.0000 0.0000 -0.0000 -0.0000 0.0000 -0.0000 -0.0000 0.0000 -0.0000 -0.0000 0.0000 -0.0000 -0.0000 0.0000 -0.0000 -0.0000 0.0000 -0.0000 -0.0000 0.0000 -0.0000 -0.0000 0.3654 -20.3104 0.2458 -5.8975 9.5444 14.7463 -0.0000 0.0000 -0.0000 0.2489 24.1051 0.8798 11.1147 -46.4552 15.0338 0.0000 -0.0000 0.0000
0.2788 83.8409 43.1266 -6.7071 1.7984 -6.1277 3.6475 -3.1492 1.8802 3.6475 -3.1492 1.8802 3.7566 -3.2464 1.9341 0.0000 -0.0000 -0.0000 0.0000 -0.0000 -0.0000 0.0000 -0.0000 -0.0000 0.0000 -0.0000 -0.0000 0.0000 -0.0000 -0.0000 0.0000 -0.0000 -0.0000 0.0000 -0.0000 -0.0000 0.0000 -0.0000 -0.0000 0.0000 -0.0000 -0.0000 0.0000 -0.0000 -0.0000 0.5677 -20.9510 0.1984 -0.7556 9.6123 16.5150 -0.0000 0.0000 -0.0000 0.4367 31.0183 1.2384 10.5251 -35.2741 14.9652 0.0000 -0.0000 0.0000
0.2607 83.2295 43.6704 -7.9130 1.5588 -7.1869 4.3061 -3.0329 2.2205 4.3061 -3.0329 2.2205 4.4349 -3.1274 2.2843 0.0000 -0.0000 -0.0000 0.0000 -0.0000 -0.0000 0.0000 -0.0000 -0.0000 0.0000 -0.0000 -0.0000 0.0000 -0.0000 -0.0000 0.0000 -0.0000 -0.0000 0.0000 -0.0000 -0.0000 0.0000 -0.0000 -0.0000 0.0000 -0.0000 -0.0000 0.0000 -0.0000 -0.0000 0.8351 -21.4846 0.0969 5.4372 9.6456 17.5381 -0.0000 0.0000 -0.0000 0.6649 36.8721 1.6893 10.0490 -27.7511 14.7523 -0.0000 0.0000 0.0000
0.2472 82.4834 44.2637 -8.8321 1.3447 -7.9991 4.8075 -2.9308 2.4783 4.8075 -2.9308 2.4783 4.9514 -3.0228 2.5496 0.0000 -0.0000 -0.0000 0.0000 -0.0000 -0.0000 0.0000 -0.0000 -0.0000 0.0000 -0.0000 -0.0000 0.0000 -0.0000 -0.0000 0.0000 -0.0000 -0.0000 0.0000 -0.0000 -0.0000 0.0000 -0.0000 -0.0000 0.0000 -0.0000 -0.0000 0.0000 -0.0000 -0.0000 1.1257 -21.8936 -0.0484 5.8328 10.2387 17.2494 0.0000 -0.0000 -0.0000 0.8913 41.4157 2.1457 9.6232 -31.2220 15.3134 -0.0000 0.0000 -0.0000
0.2397 81.6731 44.9083 -9.4438 1.1941 -8.5458 5.1422 -2.8575 2.6463 5.1422 -2.8575 2.6463 5.2962 -2.9477 2.7225 -0.0000 0.0000 -0.0000 -0.0000 0.0000 -0.0000 -0.0000 0.0000 -0.0000 -0.0000 0.0000 -0.0000 -0.0000 0.0000 -0.0000 -0.0000 0.0000 -0.0000 -0.0000 0.0000 -0.0000 -0.0000 0.0000 -0.0000 -0.0000 0.0000 -0.0000 -0.0000 0.0000 -0.0000 1.3777 -22.1653 -0.1862 5.1643 11.1806 16.0035 0.0000 -0.0000 -0.0000 1.0779 44.4489 2.5260 9.2653 -35.1099 15.9073 0.0000 -0.0000 -0.0000
0.2397 80.9844 45.6005 -9.7256 1.1215 -8.8061 5.2953 -2.8216 2.7207 5.2953 -2.8216 2.7207 5.4538 -2.9110 2.7991 -0.0000 0.0000 -0.0000 -0.0000 0.0000 -0.0000 -0.0000 0.0000 -0.0000 -0.0000 0.0000 -0.0000 -0.0000 0.0000 -0.0000 -0.0000 0.0000 -0.0000 -0.0000 0.0000 -0.0000 -0.0000 0.0000 -0.0000 -0.0000 0.0000 -0.0000 -0.0000 0.0000 -0.0000 1.5120 -22.2902 -0.2564 -7.4534 11.8698 12.1370 0.0000 -0.0000 -0.0000 1.1714 45.8466 2.7243 9.0716 -36.9960 16.2286 -0.0000 -0.0000 -0.0000
0.2476 80.6245 46.3324 -9.6668 1.1402 -8.7693 5.2625 -2.8296 2.6979 5.2625 -2.8296 2.6979 5.4200 -2.9191 2.7756 0.0000 -0.0000 -0.0000 0.0000 -0.0000 -0.0000 0.0000 -0.0000 -0.0000 0.0000 -0.0000 -0.0000 0.0000 -0.0000 -0.0000 0.0000 -0.0000 -0.0000 0.0000 -0.0000 -0.0000 0.0000 -0.0000 -0.0000 0.0000 -0.0000 -0.0000 0.0000 -0.0000 -0.0000 1.4850 -22.2642 -0.2274 -12.0452 11.0645 -10.3411 0.0000 0.0000 -0.0000 1.1400 45.5507 2.6882 9.1179 -36.4300 16.1462 -0.0000 0.0000 -0.0000
0.2636 80.7185 47.0919 -9.2734 1.2494 -8.4400 5.0460 -2.8803 2.5822 5.0460 -2.8803 2.5822 5.1971 -2.9711 2.6565 -0.0000 0.0000 -0.0000 -0.0000 0.0000 -0.0000 -0.0000 0.0000 -0.0000 -0.0000 0.0000 -0.0000 -0.0000 0.0000 -0.0000 -0.0000 0.0000 -0.0000 -0.0000 0.0000 -0.0000 -0.0000 0.0000 -0.0000 -0.0000 0.0000 -0.0000 -0.0000 0.0000 -0.0000 1.3167 -22.0889 -0.1162 -13.6704 9.2757 -11.5232 0.0000 -0.0000 -0.0000 0.9979 43.5710 2.4474 9.3899 -33.2594 15.6629 0.0000 0.0000 -0.0000
0.2867 81.2375 47.8640 -8.5553 1.4313 -7.8253 4.6534 -2.9652 2.3709 4.6534 -2.9652 2.3709 4.7927 -3.0580 2.4390 0.0000 -0.0000 -0.0000 0.0000 -0.0000 -0.0000 0.0000 -0.0000 -0.0000 0.0000 -0.0000 -0.0000 0.0000 -0.0000 -0.0000 0.0000 -0.0000 -0.0000 0.0000 -0.0000 -0.0000 0.0000 -0.0000 -0.0000 0.0000 -0.0000 -0.0000 0.0000 -0.0000 -0.0000 1.0511 -21.7693 0.0386 -14.3028 7.2603 -11.4425 -0.0000 0.0000 -0.0000 0.7749 39.9963 2.0647 9.7896 -27.3269 14.8813 0.0000 -0.0000 0.0000
0.3153 82.0089 48.6315 -7.5348 1.6656 -6.9475 4.0949 -3.0747 2.0727 4.0949 -3.0747 2.0727 4.2174 -3.1702 2.1321 -0.0000 0.0000 0.0000 -0.0000 0.0000 0.0000 -0.0000 0.0000 0.0000 -0.0000 0.0000 0.0000 -0.0000 0.0000 0.0000 -0.0000 0.0000 0.0000 -0.0000 0.0000 0.0000 -0.0000 0.0000 0.0000 -0.0000 0.0000 0.0000 -0.0000 0.0000 0.0000 0.7803 -21.3161 0.1641 -14.7271 5.3219 -10.9417 -0.0000 0.0000 -0.0000 0.5248 34.9745 1.6418 10.1923 -18.7229 13.9390 0.0000 -0.0000 -0.0000
0.3474 82.7661 49.3757 -6.2440 1.9180 -5.8294 3.3898 -3.1925 1.6928 3.3898 -3.1925 1.6928 3.4911 -3.2908 1.7412 0.0000 0.0000 -0.0000 0.0000 0.0000 -0.0000 0.0000 0.0000 -0.0000 0.0000 0.0000 -0.0000 0.0000 0.0000 -0.0000 0.0000 0.0000 -0.0000 0.0000 0.0000 -0.0000 0.0000 0.0000 -0.0000 0.0000 0.0000 -0.0000 0.0000 0.0000 -0.0000 0.5443 -20.7441 0.2324 -15.1670 -8.7970 -10.2951 0.0000 -0.0000 -0.0000 0.2956 28.7218 1.2649 10.5035 -7.9294 12.9401 0.0000 -0.0000 -0.0000
0.3806 83.4157 50.0776 -4.7232 2.1487 -4.5123 2.5591 -3.3052 1.2428 2.5591 -3.3052 1.2428 2.6356 -3.4062 1.2782 -0.0000 -0.0000 -0.0000 -0.0000 -0.0000 -0.0000 -0.0000 -0.0000 -0.0000 -0.0000 -0.0000 -0.0000 -0.0000 -0.0000 -0.0000 -0.0000 -0.0000 -0.0000 -0.0000 -0.0000 -0.0000 -0.0000 -0.0000 -0.0000 -0.0000 -0.0000 -0.0000 -0.0000 -0.0000 -0.0000 0.3728 -20.0723 0.2475 -15.6998 -22.8474 -6.2551 -0.0000 0.0000 -0.0000 0.1136 21.5099 0.9913 10.6708 4.3076 11.9287 -0.0000 0.0000 -0.0000
0.4123 83.8073 50.7183 -3.0174 2.3420 -3.0429 1.6283 -3.4033 0.7386 1.6283 -3.4033 0.7386 1.6771 -3.5068 0.7595 0.0000 -0.0000 -0.0000 0.0000 -0.0000 -0.0000 0.0000 -0.0000 -0.0000 0.0000 -0.0000 -0.0000 0.0000 -0.0000 -0.0000 0.0000 -0.0000 -0.0000 0.0000 -0.0000 -0.0000 0.0000 -0.0000 -0.0000 0.0000 -0.0000 -0.0000 0.0000 -0.0000 -0.0000 0.2528 -13.2388 0.2350 -16.3334 -34.0393 -0.1468 -0.0000 0.0000 -0.0000 -0.0251 13.6129 0.8215 10.6595 6.2218 10.8968 -0.0000 0.0000 0.0000
0.4409 84.1112 51.2833 -1.2960 1.3102 -1.6177 0.7151 -1.8375 0.2495 0.7151 -1.8375 0.2495 0.7366 -1.8932 0.2567 -0.0000 0.0000 -0.0000 -0.0000 0.0000 -0.0000 -0.0000 0.0000 -0.0000 -0.0000 0.0000 -0.0000 -0.0000 0.0000 -0.0000 -0.0000 0.0000 -0.0000 -0.0000 0.0000 -0.0000 -0.0000 0.0000 -0.0000 -0.0000 0.0000 -0.0000 -0.0000 0.0000 -0.0000 0.1682 -6.1034 0.1388 -15.2988 -25.1959 -11.0553 -0.0000 0.0000 -0.0000 -0.1379 6.2915 0.7059 10.4068 7.5515 7.9619 0.0000 -0.0000 -0.0000
0.4665 84.3024 51.7829 -0.3562 1.0798 -0.7983 0.2070 -1.4461 -0.0607 0.2070 -1.4461 -0.0607 0.2133 -1.4900 -0.0626 0.0000 -0.0000 -0.0000 0.0000 -0.0000 -0.0000 0.0000 -0.0000 -0.0000 0.0000 -0.0000 -0.0000 0.0000 -0.0000 -0.0000 0.0000 -0.0000 -0.0000 0.0000 -0.0000 -0.0000 0.0000 -0.0000 -0.0000 0.0000 -0.0000 -0.0000 0.0000 -0.0000 -0.0000 0.1626 -1.7863 0.0692 -15.0491 -25.4749 -11.6043 -0.0000 0.0000 -0.0000 -0.1931 1.8797 0.6871 10.1175 8.2481 1.0974 -0.0000 0.0000 -0.0000
0.4893 84.3753 52.2260 0.3838 1.0241 -0.1248 -0.2014 -1.3498 -0.3135 -0.2014 -1.3498 -0.3135 -0.2074 -1.3907 -0.3230 -0.0000 0.0000 -0.0000 -0.0000 0.0000 -0.0000 -0.0000 0.0000 -0.0000 -0.0000 0.0000 -0.0000 -0.0000 0.0000 -0.0000 -0.0000 0.0000 -0.0000 -0.0000 0.0000 -0.0000 -0.0000 0.0000 -0.0000 -0.0000 0.0000 -0.0000 -0.0000 0.0000 -0.0000 0.1673 1.8557 0.0118 -14.8963 -27.7999 -11.8921 -0.0000 0.0000 -0.0000 -0.2110 -1.7838 0.6728 9.8039 8.7729 -4.9957 -0.0000 0.0000 -0.0000
0.5097 84.3394 52.6201 1.0753 0.9904 0.5102 -0.5846 -1.3168 -0.5489 -0.5846 -1.3168 -0.5489 -0.6021 -1.3568 -0.5653 0.0000 -0.0000 -0.0000 0.0000 -0.0000 -0.0000 0.0000 -0.0000 -0.0000 0.0000 -0.0000 -0.0000 0.0000 -0.0000 -0.0000 0.0000 -0.0000 -0.0000 0.0000 -0.0000 -0.0000 0.0000 -0.0000 -0.0000 0.0000 -0.0000 -0.0000 0.0000 -0.0000 -0.0000 0.1618 5.3254 -0.0541 -14.7090 -29.9474 -12.1736 0.0000 -0.0000 -0.0000 -0.2297 -5.2210 0.6445 9.4272 9.2331 -10.1347 -0.0000 0.0000 -0.0000
